<svg version="1" xmlns="http://www.w3.org/2000/svg" width="933.333" height="933.333" viewBox="0 0 700.000000 700.000000"><path d="M83.7 1.6c-36.4 6.6-65.5 31.3-78 65.9-6.1 17.1-5.8 1.6-5.5 287l.3 260 2.6 9.5c10.3 37 37.6 63.8 74.6 73.3l8.8 2.2h527l8.9-2.3c37.4-9.5 65.3-37.4 74.8-74.8l2.3-8.9v-527l-2.2-8.8c-5-19.4-14.2-35.5-28-48.8-13.5-13.1-26.9-20.7-45.2-25.7L614.5.5 353 .3C130.6.2 90.3.4 83.7 1.6zm204.8 252c36.9 96 67.3 174.7 67.6 175 .3.2 31-78.3 68.1-174.4l67.5-174.7 53.7-.3L599 79v516h-70l-.2-226.1-.3-226.2-66.4 172.4c-36.5 94.8-67.2 174.3-68.2 176.6l-1.8 4.3h-71.6l-68-176.5-68-176.6-.3 226.1-.2 226h-69V79h106.5l67 174.6z"/></svg>