<svg xmlns="http://www.w3.org/2000/svg" height="200" width="200" version="1"><path d="M30.201.012A30.135 30.135 0 0 0 0 30.212v139.579a30.135 30.135 0 0 0 30.201 30.201H169.8A30.135 30.135 0 0 0 200 169.791V30.213A30.135 30.135 0 0 0 169.799.012H30.2zm18.89 33.134c10.335 0 16.695 6.786 16.891 15.704 0 8.72-6.555 15.7-17.09 15.7h-.197c-10.137 0-16.693-6.979-16.693-15.7 0-8.918 6.757-15.704 17.09-15.704zm89.054 41.686c19.875 0 34.779 12.99 34.779 40.906v52.112h-30.207v-48.621c0-12.218-4.374-20.553-15.305-20.553-8.345 0-13.314 5.622-15.498 11.049-.798 1.941-.994 4.654-.994 7.37v50.755H80.713v-.002s.396-82.355 0-90.883h30.207v12.883c4.011-6.194 11.177-15.016 27.225-15.016zM33.783 76.967h30.21v90.883h-30.21V76.967z" fill="#fff"/></svg>